<svg xmlns="http://www.w3.org/2000/svg" xmlns:xlink="http://www.w3.org/1999/xlink" version="1.1" width="256" height="256" viewBox="0 0 256 256" xml:space="preserve">

<defs>
</defs>
<g style="stroke: none; stroke-width: 0; stroke-dasharray: none; stroke-linecap: butt; stroke-linejoin: miter; stroke-miterlimit: 10; fill: none; fill-rule: nonzero; opacity: 1;" transform="translate(1.4065934065934016 1.4065934065934016) scale(2.81 2.81)" >
	<path d="M 89.707 12.562 L 77.438 0.293 c -0.391 -0.391 -1.023 -0.391 -1.414 0 l -8.856 8.856 l 4.723 4.723 c 0.391 0.391 0.391 1.023 0 1.414 c -0.195 0.195 -0.451 0.293 -0.707 0.293 s -0.512 -0.098 -0.707 -0.293 l -4.723 -4.723 l -8.02 8.02 l 5.909 5.909 c 0.391 0.391 0.391 1.023 0 1.414 c -0.195 0.195 -0.451 0.293 -0.707 0.293 s -0.512 -0.098 -0.707 -0.293 l -5.909 -5.909 l -8.02 8.02 l 4.724 4.723 c 0.391 0.391 0.391 1.023 0 1.414 c -0.195 0.195 -0.451 0.293 -0.707 0.293 s -0.512 -0.098 -0.707 -0.293 l -4.724 -4.723 l -8.02 8.02 l 5.909 5.909 c 0.391 0.391 0.391 1.023 0 1.414 c -0.195 0.195 -0.451 0.293 -0.707 0.293 s -0.512 -0.098 -0.707 -0.293 l -5.909 -5.909 l -8.02 8.02 l 4.723 4.723 c 0.391 0.391 0.391 1.023 0 1.414 c -0.195 0.195 -0.451 0.293 -0.707 0.293 s -0.512 -0.098 -0.707 -0.293 L 28.017 48.3 l -8.02 8.02 l 5.909 5.909 c 0.391 0.391 0.391 1.023 0 1.414 c -0.195 0.195 -0.451 0.293 -0.707 0.293 s -0.512 -0.098 -0.707 -0.293 l -5.909 -5.909 l -8.02 8.02 l 4.723 4.723 c 0.391 0.391 0.391 1.023 0 1.414 c -0.195 0.195 -0.451 0.293 -0.707 0.293 s -0.512 -0.098 -0.707 -0.293 l -4.723 -4.723 l -8.856 8.856 c -0.391 0.391 -0.391 1.023 0 1.414 l 12.269 12.269 C 12.757 89.902 13.013 90 13.269 90 s 0.512 -0.098 0.707 -0.293 l 75.731 -75.731 C 90.098 13.585 90.098 12.952 89.707 12.562 z M 15.68 82.82 c -0.651 0.651 -1.507 0.977 -2.363 0.977 c -0.855 0 -1.711 -0.325 -2.363 -0.977 c -1.303 -1.303 -1.303 -3.424 0 -4.727 c 1.262 -1.265 3.463 -1.265 4.727 0 c 0.631 0.632 0.979 1.471 0.979 2.363 S 16.311 82.188 15.68 82.82 z" style="stroke: none; stroke-width: 1; stroke-dasharray: none; stroke-linecap: butt; stroke-linejoin: miter; stroke-miterlimit: 10; fill: rgb(0,0,0); fill-rule: nonzero; opacity: 1;" transform=" matrix(1 0 0 1 0 0) " stroke-linecap="round" />
</g>
</svg>